<svg xmlns="http://www.w3.org/2000/svg" viewBox="0 0 937.1 190.58"><defs><style>.cls-1,.cls-2{fill:#303167;}.cls-1{fill-rule:evenodd;}.cls-3{fill:#7bafff;}.cls-4{fill:#e20613;}.cls-5{fill:#ff067e;}</style></defs><g id="Layer_2" data-name="Layer 2"><g id="Layer_1-2" data-name="Layer 1"><path class="cls-1" d="M307.94,64.08h-26.6c-33.78,0-54.86,20.62-54.86,63.25s21.08,63.25,54.86,63.25h26.6c33.54,0,54.86-20.6,54.86-63.25S341.48,64.08,307.94,64.08Zm-2.4,101.84H283.73c-22,0-31.62-11.27-31.62-38.59s9.59-38.81,31.62-38.81h21.81c21.8,0,31.62,11.5,31.62,38.81S327.34,165.92,305.54,165.92Z"/><path class="cls-1" d="M527.16,63.85,478.09,174.58c-5,11.06-13.84,16-28.76,16-15.11,0-23.9-4.93-28.51-16L374.15,63.85H400l42.48,100c1,2.77,3.34,4.16,6.87,4.16s6-1.35,7.35-4.14L500.85,63.85Z"/><path class="cls-1" d="M565.5,148.54v-9.81h61.42c29.18,0,42.77-11.51,42.77-36.22,0-25.65-14.31-38.66-42.53-38.66H585.73c-28.35,0-44,14.76-44,41.56V149c0,26.79,15.62,41.55,44,41.55h77.66V166.83H585.73C572.69,166.83,565.5,160.34,565.5,148.54Zm0-42.89c0-11.62,7.37-18.29,20.23-18.29h41.19c12.11,0,18.78,5.89,18.78,16.6s-6.38,15.86-19.5,15.86H565.5Z"/><rect class="cls-2" x="702.15" y="8.37" width="24.46" height="182.2"/><rect class="cls-2" x="764.41" y="63.85" width="24.47" height="126.72"/><rect class="cls-2" x="764.41" y="15.64" width="24.72" height="28.59"/><path class="cls-1" d="M861.88,64.08c-29.48,0-41.22,14.14-41.22,36.9,0,19.4,8.63,36.89,43.61,36.89h29.94c12.71,0,18,4.08,18,14.14,0,9.82-4.78,13.9-16.53,13.9H822.1v24.67h73.55c29.72,0,41.45-15.81,41.45-38.33,0-19.65-8.86-35.7-43.84-35.7H863.55c-14.14,0-18-4.79-18-13.66,0-9.58,4.79-14.37,16.54-14.37h70V64.08Z"/><path class="cls-3" d="M224.25,25.61a25.48,25.48,0,0,1-1.93,9.72L164.76,174.79a25.52,25.52,0,0,1-33.32,13.86,24.79,24.79,0,0,1-6.81-4.18,25.52,25.52,0,0,0,40-29.34L141,98.48l34.09-82.62a25.53,25.53,0,0,1,49.12,9.75Z"/><path class="cls-3" d="M103.48,10.25c-.3-.41-.63-.81-1-1.2s-.7-.79-1.07-1.16-.73-.75-1.13-1.11-.8-.7-1.21-1-.68-.54-1-.79a1.9,1.9,0,0,0-.37-.26c-.29-.21-.57-.4-.87-.59a4,4,0,0,0-.47-.29,26.58,26.58,0,0,0-2.58-1.37c-.48-.22-1-.42-1.45-.61a14.37,14.37,0,0,0-1.48-.52C90.4,1.17,90,1,89.48.92S88.57.69,88.09.59c-.24,0-.48-.1-.73-.12C87,.38,86.54.33,86.13.27s-1-.09-1.44-.12S83.63.1,83.1.1A25.52,25.52,0,0,0,59.56,35.41l23.61,56.8L49.12,174.72A25.51,25.51,0,1,1,2,155.26L59.49,15.79A25.53,25.53,0,0,1,92.81,1.93,25.16,25.16,0,0,1,103.48,10.25Z"/><path class="cls-4" d="M93.78,2.45a23.5,23.5,0,0,1,2.58,1.37A26.58,26.58,0,0,0,93.78,2.45Z"/><path class="cls-2" d="M108.6,25.55a25.28,25.28,0,0,1-1.93,9.71l-23.5,57L59.56,35.41A25.52,25.52,0,0,1,83.1.1c.53,0,1.06,0,1.59,0s1,.07,1.44.12.82.11,1.23.2c.25,0,.49.08.73.12.48.1.94.21,1.39.33s.92.25,1.37.4a14.37,14.37,0,0,1,1.48.52c.5.19,1,.39,1.45.61a14.49,14.49,0,0,1,1.31.65c.42.23.86.46,1.27.72a4,4,0,0,1,.47.29c.3.19.58.38.87.59a1.9,1.9,0,0,1,.37.26c.36.25.7.52,1,.79s.81.67,1.21,1,.76.73,1.13,1.11.73.77,1.07,1.16c.1.11.19.22.29.35s.45.56.67.85.63.85.91,1.3a1.88,1.88,0,0,1,.16.23c.29.45.58.9.84,1.38.16.29.31.58.46.87s.29.59.43.89.27.6.39.9A25.58,25.58,0,0,1,108.6,25.55Z"/><path class="cls-4" d="M96.36,3.82a26.58,26.58,0,0,0-2.58-1.37A23.5,23.5,0,0,1,96.36,3.82Z"/><path class="cls-5" d="M115.64,165.05a25.58,25.58,0,0,0,5.16,15.38,24.25,24.25,0,0,1-3.32-5.71L83.17,92.21l23.5-56.95a25.28,25.28,0,0,0,1.93-9.71,25.58,25.58,0,0,0-1.93-9.73L141,98.48l-23.45,56.85A25.55,25.55,0,0,0,115.64,165.05Z"/><path class="cls-2" d="M150.83,188.49a25.48,25.48,0,0,1-26.2-4c-.31-.27-.64-.54-1-.85s-.61-.58-.92-.89h0c-.42-.45-.84-.92-1.23-1.38,0,0,0,0,0,0-.23-.29-.47-.58-.68-.88s-.42-.56-.61-.83a25.41,25.41,0,0,1-2.6-24.27L141,98.48l23.56,56.65A25.51,25.51,0,0,1,150.83,188.49Z"/></g></g></svg>